<svg width="100" height="78" viewBox="0 0 100 78" fill="none" xmlns="http://www.w3.org/2000/svg">
<path d="M25.744 11.904C29.392 11.904 32.688 12.384 35.632 13.344C38.64 14.24 41.168 15.424 43.216 16.896C44.496 17.792 45.488 18.784 46.192 19.872C46.96 20.96 47.344 22.368 47.344 24.096V57.696C47.344 61.088 46.704 64 45.424 66.432C44.144 68.928 42.384 70.976 40.144 72.576C37.968 74.24 35.376 75.456 32.368 76.224C29.424 76.992 26.256 77.376 22.864 77.376C17.04 77.376 12.464 76.576 9.136 74.976C5.808 73.44 4.144 70.912 4.144 67.392C4.144 65.92 4.432 64.608 5.008 63.456C5.648 62.368 6.352 61.536 7.12 60.96C8.976 61.984 11.056 62.848 13.36 63.552C15.728 64.256 18.16 64.608 20.656 64.608C24.112 64.608 26.864 64.032 28.912 62.88C30.96 61.728 31.984 59.872 31.984 57.312V55.776C29.36 56.928 26.16 57.504 22.384 57.504C19.504 57.504 16.752 57.088 14.128 56.256C11.568 55.36 9.296 54.016 7.312 52.224C5.392 50.368 3.824 48 2.608 45.12C1.456 42.24 0.88 38.816 0.88 34.848C0.88 30.944 1.488 27.552 2.704 24.672C3.984 21.792 5.712 19.424 7.888 17.568C10.128 15.648 12.752 14.24 15.76 13.344C18.832 12.384 22.16 11.904 25.744 11.904ZM31.696 25.824C31.248 25.568 30.576 25.312 29.68 25.056C28.848 24.8 27.792 24.672 26.512 24.672C23.376 24.672 21.008 25.568 19.408 27.36C17.872 29.088 17.104 31.584 17.104 34.848C17.104 38.56 17.872 41.248 19.408 42.912C21.008 44.512 23.024 45.312 25.456 45.312C28.08 45.312 30.16 44.704 31.696 43.488V25.824ZM75.6048 0.191998C79.2528 0.191998 82.4848 0.671997 85.3008 1.632C88.1168 2.528 90.5168 3.776 92.5008 5.376C94.4848 6.976 95.9888 8.864 97.0128 11.04C98.0368 13.216 98.5488 15.552 98.5488 18.048C98.5488 24.768 94.7408 31.168 87.1248 37.248L74.5488 47.328H97.5888C97.9728 48.032 98.3248 48.928 98.6448 50.016C99.0288 51.104 99.2208 52.288 99.2208 53.568C99.2208 55.872 98.7088 57.536 97.6848 58.56C96.6608 59.52 95.3168 60 93.6528 60H60.3408C58.9328 59.04 57.8128 57.824 56.9808 56.352C56.2128 54.816 55.8288 53.024 55.8288 50.976C55.8288 48.8 56.2768 46.976 57.1728 45.504C58.0688 43.968 59.0608 42.752 60.1488 41.856L73.3968 30.528C75.0608 29.12 76.4368 27.872 77.5248 26.784C78.6128 25.632 79.4768 24.608 80.1168 23.712C80.8208 22.816 81.3008 21.984 81.5568 21.216C81.8768 20.448 82.0368 19.712 82.0368 19.008C82.0368 17.216 81.2368 15.808 79.6368 14.784C78.1008 13.76 76.1808 13.248 73.8768 13.248C71.3168 13.248 69.0128 13.664 66.9648 14.496C64.9808 15.264 63.3168 16.096 61.9728 16.992C60.8848 16.224 59.9888 15.264 59.2848 14.112C58.5808 12.96 58.2288 11.616 58.2288 10.08C58.2288 6.752 59.7968 4.288 62.9328 2.688C66.0688 1.024 70.2928 0.191998 75.6048 0.191998Z" fill="white"/>
</svg>
