<svg width="319" height="73" viewBox="0 0 319 73" fill="none" xmlns="http://www.w3.org/2000/svg">
<path d="M0.304 71V64.344H0.688C2.56533 64.344 4.18667 64.1307 5.552 63.704C6.91733 63.2773 7.984 62.4667 8.752 61.272C9.52 59.992 9.904 58.072 9.904 55.512V17.368C9.904 14.9787 9.52 13.1867 8.752 11.992C8.06933 10.7973 7.088 10.0293 5.808 9.688C4.61333 9.26133 3.12 9.048 1.328 9.048H0.944V2.392H26.288L27.696 11.608H28.336C29.7867 8.70666 31.408 6.488 33.2 4.952C34.992 3.416 36.9973 2.34933 39.216 1.752C41.4347 1.06933 43.9093 0.727997 46.64 0.727997C52.8693 0.727997 57.6907 2.69066 61.104 6.616C64.5173 10.5413 66.224 16.856 66.224 25.56V55.384C66.224 57.944 66.5227 59.864 67.12 61.144C67.7173 62.424 68.5707 63.2773 69.68 63.704C70.8747 64.1307 72.368 64.344 74.16 64.344H74.544V71H47.92V28.632C47.92 23.0853 47.2373 18.8187 45.872 15.832C44.5067 12.76 42.1173 11.224 38.704 11.224C36.0587 11.224 33.968 12.1627 32.432 14.04C30.896 15.9173 29.7867 18.392 29.104 21.464C28.5067 24.4507 28.208 27.736 28.208 31.32V56.024C28.208 58.4133 28.5493 60.2053 29.232 61.4C29.9147 62.5947 30.896 63.4053 32.176 63.832C33.456 64.1733 34.9493 64.344 36.656 64.344H37.168V71H0.304ZM106.422 72.28C96.8647 72.28 89.3127 69.336 83.766 63.448C78.3047 57.56 75.574 48.5573 75.574 36.44C75.574 24.408 78.2193 15.448 83.51 9.56C88.886 3.672 96.694 0.727997 106.934 0.727997C116.491 0.727997 124.001 3.672 129.462 9.56C135.009 15.448 137.782 24.408 137.782 36.44C137.782 48.5573 135.137 57.56 129.846 63.448C124.555 69.336 116.747 72.28 106.422 72.28ZM106.806 64.344C109.878 64.344 112.31 63.32 114.102 61.272C115.894 59.1387 117.131 55.9813 117.814 51.8C118.582 47.6187 118.966 42.4987 118.966 36.44C118.966 30.296 118.539 25.176 117.686 21.08C116.918 16.984 115.638 13.912 113.846 11.864C112.139 9.816 109.75 8.792 106.678 8.792C103.691 8.792 101.302 9.816 99.51 11.864C97.718 13.912 96.3953 16.984 95.542 21.08C94.774 25.176 94.39 30.296 94.39 36.44C94.39 42.584 94.774 47.7467 95.542 51.928C96.3953 56.024 97.718 59.1387 99.51 61.272C101.302 63.32 103.734 64.344 106.806 64.344ZM145.365 15.192C144.853 13.5707 144.17 12.3333 143.317 11.48C142.549 10.5413 141.568 9.90133 140.373 9.56C139.178 9.21866 137.728 9.048 136.021 9.048V2.392H173.013V9.048H168.533C167.082 9.048 165.973 9.38933 165.205 10.072C164.437 10.7547 164.053 11.7787 164.053 13.144C164.053 14.168 164.181 15.192 164.437 16.216C164.693 17.24 164.949 18.1787 165.205 19.032L173.141 43.096C173.738 44.888 174.293 46.7653 174.805 48.728C175.402 50.6053 175.914 52.44 176.341 54.232C176.768 56.024 177.109 57.6453 177.365 59.096C177.621 57.816 177.92 56.408 178.261 54.872C178.602 53.2507 178.986 51.6293 179.413 50.008C179.84 48.3867 180.266 46.8933 180.693 45.528L188.629 20.312C189.056 18.9467 189.397 17.6667 189.653 16.472C189.909 15.2773 190.037 14.0827 190.037 12.888C190.037 11.5227 189.568 10.5413 188.629 9.944C187.776 9.34666 186.581 9.048 185.045 9.048H182.101V2.392H208.213V9.048H205.781C204.757 9.048 203.818 9.304 202.965 9.816C202.112 10.2427 201.301 11.1387 200.533 12.504C199.765 13.784 198.954 15.7467 198.101 18.392L180.949 71H164.693L145.365 15.192ZM224.649 72.28C221.15 72.28 217.993 71.5547 215.177 70.104C212.361 68.568 210.1 66.264 208.393 63.192C206.772 60.12 205.961 56.1947 205.961 51.416C205.961 44.504 208.18 39.4267 212.617 36.184C217.054 32.856 223.71 31.0213 232.585 30.68L242.441 30.296V23.128C242.441 20.1413 242.228 17.5387 241.801 15.32C241.46 13.1013 240.734 11.3947 239.625 10.2C238.601 9.00533 237.022 8.408 234.889 8.408C232.926 8.408 231.348 9.00533 230.153 10.2C228.958 11.3093 228.105 12.9307 227.593 15.064C227.081 17.112 226.825 19.5013 226.825 22.232C221.534 22.232 217.566 21.592 214.921 20.312C212.276 19.032 210.953 16.856 210.953 13.784C210.953 10.712 212.062 8.23733 214.281 6.36C216.5 4.48267 219.486 3.07466 223.241 2.13599C226.996 1.19733 231.134 0.727997 235.657 0.727997C244.02 0.727997 250.292 2.392 254.473 5.71999C258.74 8.96266 260.873 14.552 260.873 22.488V55.256C260.873 57.6453 261.086 59.48 261.513 60.76C261.94 62.04 262.708 62.9787 263.817 63.576C264.926 64.088 266.334 64.344 268.041 64.344H268.425V71H246.025L243.465 61.912H242.441C240.649 64.216 238.985 66.136 237.449 67.672C235.913 69.208 234.121 70.36 232.073 71.128C230.11 71.896 227.636 72.28 224.649 72.28ZM231.305 63.32C233.609 63.32 235.572 62.6373 237.193 61.272C238.9 59.8213 240.18 57.8587 241.033 55.384C241.972 52.824 242.441 49.88 242.441 46.552V36.824L237.193 37.208C234.121 37.3787 231.646 38.0613 229.769 39.256C227.977 40.4507 226.697 42.1147 225.929 44.248C225.161 46.296 224.777 48.856 224.777 51.928C224.777 54.4027 224.99 56.4933 225.417 58.2C225.929 59.9067 226.654 61.1867 227.593 62.04C228.532 62.8933 229.769 63.32 231.305 63.32ZM292.178 72.28C286.461 72.28 281.81 71.64 278.226 70.36C274.727 69.08 272.167 67.3733 270.546 65.24C268.925 63.0213 268.114 60.504 268.114 57.688C268.114 55.0427 268.711 53.08 269.906 51.8C271.101 50.4347 272.551 49.496 274.258 48.984C275.965 48.472 277.586 48.216 279.122 48.216C279.122 51.6293 279.634 54.616 280.658 57.176C281.767 59.736 283.303 61.656 285.266 62.936C287.314 64.216 289.661 64.856 292.306 64.856C296.402 64.856 299.346 64.0027 301.138 62.296C303.015 60.504 303.954 58.328 303.954 55.768C303.954 53.8907 303.485 52.2693 302.546 50.904C301.693 49.5387 300.199 48.2587 298.066 47.064C296.018 45.784 293.159 44.4613 289.49 43.096C285.053 41.3893 281.341 39.5973 278.354 37.72C275.367 35.7573 273.106 33.4533 271.57 30.808C270.034 28.1627 269.266 24.8773 269.266 20.952C269.266 14.296 271.613 9.304 276.306 5.976C280.999 2.56266 287.229 0.855995 294.994 0.855995C299.943 0.855995 303.954 1.45333 307.026 2.64799C310.098 3.75733 312.317 5.25066 313.682 7.128C315.133 8.92 315.858 10.84 315.858 12.888C315.858 15.704 314.919 17.8373 313.042 19.288C311.25 20.7387 308.263 21.464 304.082 21.464C304.082 17.1973 303.143 13.912 301.266 11.608C299.389 9.21866 296.701 8.024 293.202 8.024C291.495 8.024 289.917 8.36533 288.466 9.048C287.015 9.64533 285.821 10.5413 284.882 11.736C284.029 12.9307 283.602 14.424 283.602 16.216C283.602 18.0933 284.071 19.7147 285.01 21.08C285.949 22.4453 287.527 23.768 289.746 25.048C292.05 26.2427 295.25 27.608 299.346 29.144C303.101 30.5093 306.386 32.1307 309.202 34.008C312.018 35.8853 314.194 38.1467 315.73 40.792C317.351 43.352 318.162 46.5093 318.162 50.264C318.162 57.0907 315.901 62.4667 311.378 66.392C306.941 70.3173 300.541 72.28 292.178 72.28Z" fill="white"/>
</svg>
